name analog
datacolumns 19
datarows 34
range 0.3305 0.34700000000000003
endheader
time	ground_force_vx	ground_force_vy	ground_force_vz	ground_force_px	ground_force_py	ground_force_pz	l_ground_force_vx	l_ground_force_vy	l_ground_force_vz	l_ground_force_px	l_ground_force_py	l_ground_force_pz	ground_torque_x	ground_torque_y	ground_torque_z	l_ground_torque_x	l_ground_torque_y	l_ground_torque_z
0.3305	-0.0	-0.0	-0.0	-0.0	-0.0	-0.0	1.3306617736816406	-0.1151514649391174	-497.0858459472656	-0.0	-0.0	-0.0	-0.0	-0.0	-0.0	143292.890625	31473.669921875	-97.08614349365234
0.331	-0.0	-0.0	-0.0	-0.0	-0.0	-0.0	1.392364740371704	-0.2457294911146164	-496.9187927246094	-0.0	-0.0	-0.0	-0.0	-0.0	-0.0	143187.90625	31755.310546875	9.958976745605469
0.3315	-0.0	-0.0	-0.0	-0.0	-0.0	-0.0	1.500627040863037	0.1496773660182953	-497.9195556640625	-0.0	-0.0	-0.0	-0.0	-0.0	-0.0	143241.734375	31703.2734375	74.47692108154297
0.332	-0.0	-0.0	-0.0	-0.0	-0.0	-0.0	1.658350706100464	-0.0685029625892639	-498.6383361816406	-0.0	-0.0	-0.0	-0.0	-0.0	-0.0	143133.3125	32002.953125	19.32223129272461
0.3325	-0.0	-0.0	-0.0	-0.0	-0.0	-0.0	1.091743230819702	-0.2720032930374145	-498.7234497070313	-0.0	-0.0	-0.0	-0.0	-0.0	-0.0	143185.09375	32002.6171875	-99.74870300292967
0.333	-0.0	-0.0	-0.0	-0.0	-0.0	-0.0	1.0645294189453125	-0.5502931475639343	-498.078125	-0.0	-0.0	-0.0	-0.0	-0.0	-0.0	143245.765625	32045.859375	-170.52772521972656
0.3335	-0.0	-0.0	-0.0	-0.0	-0.0	-0.0	1.0645294189453125	-0.5703721642494202	-497.567138671875	-0.0	-0.0	-0.0	-0.0	-0.0	-0.0	142982.453125	32493.123046875	-108.89492797851562
0.334	-0.0	-0.0	-0.0	-0.0	-0.0	-0.0	0.9419587254524232	-0.4143033027648926	-498.2393798828125	-0.0	-0.0	-0.0	-0.0	-0.0	-0.0	142878.296875	32562.587890625	-140.73634338378906
0.3345	-0.0	-0.0	-0.0	-0.0	-0.0	-0.0	0.5872589945793152	-0.8832168579101562	-498.7804870605469	-0.0	-0.0	-0.0	-0.0	-0.0	-0.0	142797.9375	32743.767578125	-248.3934783935547
0.335	-0.0	-0.0	-0.0	-0.0	-0.0	-0.0	0.2049784213304519	-1.3857109546661377	-496.686767578125	-0.0	-0.0	-0.0	-0.0	-0.0	-0.0	142453.28125	33139.21484375	-465.6160888671875
0.3355	-0.0	-0.0	-0.0	-0.0	-0.0	-0.0	-0.3374156951904297	-2.092207670211792	-499.635986328125	-0.0	-0.0	-0.0	-0.0	-0.0	-0.0	142936.046875	33088.09765625	-547.8496704101562
0.336	-0.0	-0.0	-0.0	-0.0	-0.0	-0.0	-0.6707814931869507	-2.417843580245972	-499.3088684082031	-0.0	-0.0	-0.0	-0.0	-0.0	-0.0	143032.109375	33538.76171875	-633.2996826171875
0.3365	-0.0	-0.0	-0.0	-0.0	-0.0	-0.0	-1.0421884059906006	-2.627407550811768	-500.4435424804688	-0.0	-0.0	-0.0	-0.0	-0.0	-0.0	143296.296875	33812.93359375	-642.9207153320312
0.337	-0.0	-0.0	-0.0	-0.0	-0.0	-0.0	-1.3358526229858398	-2.8211259841918945	-501.0325927734375	-0.0	-0.0	-0.0	-0.0	-0.0	-0.0	142920.46875	34007.72265625	-733.9581909179688
0.3375	-0.0	-0.0	-0.0	-0.0	-0.0	-0.0	-2.0782225131988525	-2.914615631103516	-499.7261962890625	-0.0	-0.0	-0.0	-0.0	-0.0	-0.0	143006.078125	33788.5078125	-931.13623046875
0.338	-0.0	-0.0	-0.0	-0.0	-0.0	-0.0	-2.1802220344543457	-2.765824317932129	-500.09521484375	-0.0	-0.0	-0.0	-0.0	-0.0	-0.0	142977.1875	34120.015625	-1031.1400146484375
0.3385	-0.0	-0.0	-0.0	-0.0	-0.0	-0.0	-2.3253839015960693	-2.774998664855957	-502.4471740722656	-0.0	-0.0	-0.0	-0.0	-0.0	-0.0	143299.078125	34302.265625	-1090.5496826171875
0.339	-0.0	-0.0	-0.0	-0.0	-0.0	-0.0	-2.726321220397949	-1.729703664779663	-502.42919921875	-0.0	-0.0	-0.0	-0.0	-0.0	-0.0	143553.96875	34414.8203125	-1181.010498046875
0.3395	-0.0	-0.0	-0.0	-0.0	-0.0	-0.0	-2.2094459533691406	-1.5014686584472656	-502.2073364257813	-0.0	-0.0	-0.0	-0.0	-0.0	-0.0	143586.34375	34663.01171875	-1019.9542236328124
0.34	-0.0	-0.0	-0.0	-0.0	-0.0	-0.0	-2.068600654602051	-0.9996671676635742	-504.6508483886719	-0.0	-0.0	-0.0	-0.0	-0.0	-0.0	143983.40625	34721.49609375	-872.75146484375
0.3405	-0.0	-0.0	-0.0	-0.0	-0.0	-0.0	-1.4722241163253784	-0.9114051461219788	-504.3977966308594	-0.0	-0.0	-0.0	-0.0	-0.0	-0.0	144194.484375	34682.69921875	-644.4199829101562
0.341	-0.0	-0.0	-0.0	-0.0	-0.0	-0.0	-1.5648623704910278	-0.5581951141357422	-503.8397216796875	-0.0	-0.0	-0.0	-0.0	-0.0	-0.0	144459.765625	34767.94140625	-485.3725280761719
0.3415	-0.0	-0.0	-0.0	-0.0	-0.0	-0.0	-1.4796340465545654	-0.6499243974685669	-504.39886474609375	-0.0	-0.0	-0.0	-0.0	-0.0	-0.0	144623.484375	34851.94921875	-386.8499145507813
0.342	-0.0	-0.0	-0.0	-0.0	-0.0	-0.0	-1.181761622428894	-0.892615556716919	-504.1749267578125	-0.0	-0.0	-0.0	-0.0	-0.0	-0.0	144563.484375	34968.1171875	-457.6694946289063
0.3425	-0.0	-0.0	-0.0	-0.0	-0.0	-0.0	-1.3020657300949097	-0.6781029105186462	-504.9743041992188	-0.0	-0.0	-0.0	-0.0	-0.0	-0.0	144729.21875	35132.203125	-466.16064453125
0.343	-0.0	-0.0	-0.0	-0.0	-0.0	-0.0	-1.2419509887695312	-0.9144781827926636	-505.7970886230469	-0.0	-0.0	-0.0	-0.0	-0.0	-0.0	144813.171875	35079.484375	-534.1509399414062
0.3435	-0.0	-0.0	-0.0	-0.0	-0.0	-0.0	-2.1890366077423096	-1.3820390701293943	-505.3354797363281	-0.0	-0.0	-0.0	-0.0	-0.0	-0.0	145056.15625	35339.98828125	-673.7327880859375
0.34400000000000003	-0.0	-0.0	-0.0	-0.0	-0.0	-0.0	-2.040348052978516	-0.8235711455345154	-505.1090393066406	-0.0	-0.0	-0.0	-0.0	-0.0	-0.0	145378.4375	35733.2265625	-812.990966796875
0.34450000000000003	-0.0	-0.0	-0.0	-0.0	-0.0	-0.0	-2.539501667022705	-1.0598602294921875	-506.98486328125	-0.0	-0.0	-0.0	-0.0	-0.0	-0.0	145325.25	35785.98046875	-840.8987426757812
0.34500000000000003	-0.0	-0.0	-0.0	-0.0	-0.0	-0.0	-3.4597206115722656	-1.681882381439209	-506.03460693359375	-0.0	-0.0	-0.0	-0.0	-0.0	-0.0	145380.671875	35868.6875	-1100.4571533203125
0.34550000000000003	-0.0	-0.0	-0.0	-0.0	-0.0	-0.0	-4.404845714569092	-2.061957836151123	-505.1148376464844	-0.0	-0.0	-0.0	-0.0	-0.0	-0.0	145003.890625	35855.29296875	-1468.0216064453125
0.34600000000000003	-0.0	-0.0	-0.0	-0.0	-0.0	-0.0	-5.203373432159424	-3.1795806884765625	-504.0546569824219	-0.0	-0.0	-0.0	-0.0	-0.0	-0.0	144627.0	35829.84765625	-1734.7445068359375
0.34650000000000003	-0.0	-0.0	-0.0	-0.0	-0.0	-0.0	-6.121044158935547	-3.710780620574951	-502.0750122070313	-0.0	-0.0	-0.0	-0.0	-0.0	-0.0	144633.390625	36010.41015625	-2071.6064453125
0.34700000000000003	-0.0	-0.0	-0.0	-0.0	-0.0	-0.0	-6.68251371383667	-3.797832489013672	-501.73089599609375	-0.0	-0.0	-0.0	-0.0	-0.0	-0.0	144285.359375	35765.8203125	-2181.324462890625
